<?xml version="1.0" encoding="utf-8"?>
<!-- Generator: Adobe Illustrator 26.0.1, SVG Export Plug-In . SVG Version: 6.00 Build 0)  -->
<svg version="1.1" id="Layer_1" xmlns="http://www.w3.org/2000/svg" xmlns:xlink="http://www.w3.org/1999/xlink" x="0px" y="0px"
	 viewBox="0 0 256.7 76.2" style="enable-background:new 0 0 256.7 76.2;" xml:space="preserve">
<style type="text/css">
	.st0{fill:url(#SVGID_1_);}
</style>
<radialGradient id="SVGID_1_" cx="263.6874" cy="19.8536" r="240.7955" gradientUnits="userSpaceOnUse">
	<stop  offset="0" style="stop-color:#F39200"/>
	<stop  offset="0.9571" style="stop-color:#0AA093"/>
	<stop  offset="1" style="stop-color:#00A19A"/>
</radialGradient>
<path class="st0" d="M56.7,68.7c-2.3,1.7-4.8,3.2-7.6,4.3c-4.2,1.7-8.5,2.6-13.1,2.6c-4.5,0-8.9-0.9-13.1-2.6
	c-4.2-1.7-7.9-4.2-11.1-7.4c-3.2-3.2-5.7-6.9-7.4-11.1C2.9,50.4,2,46,2,41.5c0-4.5,0.9-8.9,2.6-13.1c1.7-4.2,4.2-7.9,7.4-11.1
	s6.9-5.7,11.1-7.4c4.2-1.7,8.5-2.6,13.1-2.6c4.5,0,8.9,0.9,13.1,2.6c4.2,1.7,7.9,4.2,11.1,7.4c3.2,3.2,5.7,6.9,7.4,11.1
	c1.7,4.2,2.6,8.5,2.6,13.1c0,4.5-0.9,8.9-2.6,13.1c-0.6,1.4-1.2,2.7-2,3.9l7.9,6.7l-8.7,10.4L56.7,68.7z M55,49.5
	c1-2.5,1.5-5.1,1.5-8c0-5.6-2-10.5-6-14.5c-4-4-8.8-6-14.5-6s-10.5,2-14.5,6c-4,4-6,8.8-6,14.5s2,10.5,6,14.5c4,4,8.8,6,14.5,6
	c3.6,0,6.8-0.8,9.7-2.4l-7-5.9l8.7-10.4L55,49.5z M113.4,71.9c-1,0.6-2.1,1.1-3.2,1.6c-3.3,1.4-6.8,2.1-10.4,2.1
	c-3.6,0-7.1-0.7-10.4-2.1c-3.3-1.4-6.3-3.4-8.8-5.9c-2.6-2.6-4.5-5.5-5.9-8.8c-1.4-3.3-2.1-6.8-2.1-10.4V21.1h13.6v27.3
	c0,3.8,1.3,7,4,9.6c2.7,2.7,5.9,4,9.6,4c3.8,0,7-1.3,9.6-4c2.7-2.7,4-5.9,4-9.6V21.1h13.6v54.5h-13.6V71.9z M141.9,17.6
	c-2.3,0-4.4-0.8-6-2.5c-1.7-1.7-2.5-3.7-2.5-6c0-2.3,0.8-4.3,2.5-6c1.7-1.7,3.7-2.5,6-2.5c2.3,0,4.3,0.8,6,2.5
	c1.7,1.7,2.5,3.7,2.5,6c0,2.3-0.8,4.4-2.5,6C146.2,16.8,144.2,17.6,141.9,17.6z M148.7,75.6h-13.6V21.1h13.6V75.6z M179.6,34.7h-29
	V21.1h54.5l-29,40.9h29v13.6h-54.5L179.6,34.7z M254.7,75.6h-13.6v-3.7c-1,0.6-2.1,1.1-3.2,1.6c-3.3,1.4-6.8,2.1-10.4,2.1
	c-3.6,0-7.1-0.7-10.4-2.1c-3.3-1.4-6.3-3.4-8.8-5.9c-2.6-2.6-4.5-5.5-5.9-8.8c-1.4-3.3-2.1-6.8-2.1-10.4c0-3.6,0.7-7.1,2.1-10.4
	c1.4-3.3,3.4-6.3,5.9-8.8c2.6-2.6,5.5-4.5,8.8-5.9s6.8-2.1,10.4-2.1c3.6,0,7.1,0.7,10.4,2.1c1.1,0.5,2.2,1,3.2,1.6v-3.7h13.6V75.6z
	 M227.4,34.7c-3.8,0-7,1.3-9.6,4c-2.7,2.7-4,5.9-4,9.6c0,3.8,1.3,7,4,9.6c2.7,2.7,5.9,4,9.6,4c3.8,0,7-1.3,9.6-4
	c2.7-2.7,4-5.9,4-9.6c0-3.8-1.3-7-4-9.6C234.4,36,231.2,34.7,227.4,34.7z"/>
</svg>
